HIERARCHY
ROOT hip
{
	OFFSET 0.000000 0.000000 0.000000 
	CHANNELS 6 Xposition Yposition Zposition Zrotation Xrotation Yrotation
	JOINT abdomen
	{
		OFFSET 0.000000 3.402643 0.000000 
		CHANNELS 3 Zrotation Xrotation Yrotation
		JOINT chest
		{
			OFFSET 0.000000 8.438565 -0.680529 
			CHANNELS 3 Zrotation Xrotation Yrotation
			JOINT neck
			{
				OFFSET 0.000000 9.885400 -0.272212 
				CHANNELS 3 Zrotation Xrotation Yrotation
				JOINT head
				{
					OFFSET 0.000000 3.130431 0.000000 
					CHANNELS 3 Zrotation Xrotation Yrotation
					End Site
					{
						OFFSET 0.000000 3.039250 0.000000 
					}
				}
			}
			JOINT lCollar
			{
				OFFSET 3.238290 6.669187 -0.816635 
				CHANNELS 3 Zrotation Xrotation Yrotation
				JOINT lShldr
				{
					OFFSET 2.515050 0.000000 0.000000 
					CHANNELS 3 Zrotation Xrotation Yrotation
					JOINT lForeArm
					{
						OFFSET 11.517700 0.000000 0.000000 
						CHANNELS 3 Zrotation Xrotation Yrotation
						JOINT lHand
						{
							OFFSET 9.026700 0.000000 0.000000 
							CHANNELS 3 Zrotation Xrotation Yrotation
							End Site
							{
								OFFSET 4.028470 0.000000 0.000000 
							}
						}
					}
				}
			}
			JOINT rCollar
			{
				OFFSET -3.238290 6.669187 -0.816635 
				CHANNELS 3 Zrotation Xrotation Yrotation
				JOINT rShldr
				{
					OFFSET -2.515050 0.000000 0.000000 
					CHANNELS 3 Zrotation Xrotation Yrotation
					JOINT rForeArm
					{
						OFFSET -11.517700 0.000000 0.000000 
						CHANNELS 3 Zrotation Xrotation Yrotation
						JOINT rHand
						{
							OFFSET -9.026700 0.000000 0.000000 
							CHANNELS 3 Zrotation Xrotation Yrotation
							End Site
							{
								OFFSET -4.028470 0.000000 0.000000 
							}
						}
					}
				}
			}
		}
	}
	JOINT lThigh
	{
		OFFSET 4.983750 -1.633274 1.361059 
		CHANNELS 3 Zrotation Xrotation Yrotation
		JOINT lShin
		{
			OFFSET -2.041588 -20.007561 0.000000 
			CHANNELS 3 Zrotation Xrotation Yrotation
			JOINT lFoot
			{
				OFFSET 0.000000 -19.190928 -1.224953 
				CHANNELS 3 Zrotation Xrotation Yrotation
				End Site
				{
					OFFSET 0.000000 -2.449906 4.627600 
				}
			}
		}
	}
	JOINT rThigh
	{
		OFFSET -4.983750 -1.633274 1.361059 
		CHANNELS 3 Zrotation Xrotation Yrotation
		JOINT rShin
		{
			OFFSET 2.041588 -20.007561 0.000000 
			CHANNELS 3 Zrotation Xrotation Yrotation
			JOINT rFoot
			{
				OFFSET 0.000000 -19.190928 -1.224953 
				CHANNELS 3 Zrotation Xrotation Yrotation
				End Site
				{
					OFFSET 0.000000 -2.449906 4.627600 
				}
			}
		}
	}
}
MOTION
Frames: 11
Frame Time: 0.050000
0.000000 0.000000 0.000000 0.000000 0.060000 0.000000 3.930337 7.777866 -0.880332 1.948723 6.293219 -3.383257 0.000000 0.060000 0.000000 0.000000 0.060000 0.000000 -17.050819 13.827785 -28.619812 5.032503 2.413975 -15.068669 -20.233448 0.642948 -82.345169 -6.999999 0.060000 0.000000 26.387768 14.880212 26.609882 20.605604 6.992578 25.941944 5.235034 2.911590 61.480331 6.999999 -39.958115 -0.000000 6.454540 -17.228004 2.541637 -2.363413 39.044582 1.385698 5.255294 -20.165722 -0.332931 -6.560701 -17.071974 -2.845723 3.407308 39.210194 -2.022306 -5.476057 -20.327429 1.283927 
-0.181023 28.808815 0.368588 0.000000 0.000000 0.000000 3.930337 7.717866 -0.880332 1.948723 6.233219 -3.383257 0.000000 0.000000 0.000000 0.000000 0.000000 0.000000 -17.050819 13.767784 -28.619812 5.032503 2.353975 -15.068669 -20.233448 0.582948 -82.345169 -6.999999 0.000000 0.000000 26.387768 14.820211 26.609882 20.605604 6.932578 25.941944 5.235034 2.851590 61.480331 6.999999 -40.018116 -0.000000 6.454540 -17.288004 2.541637 -2.363413 38.984581 1.385698 5.255294 -20.225721 -0.332931 -6.560701 -17.131973 -2.845723 3.407308 39.150192 -2.022306 -5.476057 -20.387428 1.283927 
-0.179622 28.791824 0.368588 0.000000 0.000000 0.451324 3.926501 7.666242 -0.876568 1.948723 6.233219 -2.080589 0.000000 0.000000 0.000000 0.000000 0.000000 0.000000 -16.786900 13.135049 -27.753969 5.401493 1.256218 -12.799404 -20.053482 2.931608 -88.281860 -6.176562 -0.564710 0.655806 26.189833 14.317603 26.479382 20.290615 6.682075 25.266853 5.127456 2.400483 60.555515 4.614016 -42.062767 -2.776048 6.444873 -17.222786 2.528956 -2.371670 38.734608 1.383820 5.274378 -20.092529 -0.686629 -6.534531 -16.934002 -2.805499 3.423102 38.839111 -2.019446 -5.500003 -20.236105 0.898826 
-0.176058 28.748062 0.368588 0.000000 0.000000 1.599569 3.916759 7.534896 -0.867023 1.948723 6.233218 1.233625 0.000000 0.000000 0.000000 0.000000 0.000000 0.000000 -16.118439 11.689884 -25.574883 6.543908 -1.314005 -7.166177 -18.559181 8.376384 -102.638565 -3.905988 -2.076425 2.414834 25.649876 12.974965 26.129080 19.406700 5.988804 23.491816 4.788400 1.276198 58.285278 -2.210408 -46.598206 -10.178690 6.418334 -17.041306 2.493796 -2.393688 38.050716 1.377864 5.324768 -19.729696 -1.634630 -6.464340 -16.396713 -2.697298 3.465128 37.991474 -2.009988 -5.563234 -19.821480 -0.132973 
-0.171288 28.688351 0.368588 0.000000 0.000000 3.136151 3.903764 7.359125 -0.854320 1.948723 6.233218 5.668701 0.000000 0.000000 0.000000 0.000000 0.000000 0.000000 -15.258108 10.103024 -22.709627 8.348761 -4.146163 0.121424 -14.816422 14.125024 -120.465111 -0.454032 -4.253485 4.971378 24.843054 11.043590 25.619984 18.029209 4.934981 20.994598 4.199738 -0.171568 55.422100 -12.684806 -51.107307 -20.727421 6.378679 -16.764790 2.440581 -2.425356 37.031967 1.367087 5.395596 -19.193104 -3.007741 -6.362981 -15.604976 -2.540377 3.525373 36.735725 -1.992024 -5.652078 -19.201670 -1.625594 
-0.166271 28.623495 0.368588 0.000000 0.000000 4.752479 3.890144 7.174225 -0.841045 1.948723 6.233219 10.333954 0.000000 0.000000 0.000000 0.000000 0.000000 0.000000 -14.537486 8.955506 -19.804054 9.930375 -5.874721 7.379648 -10.072822 17.853607 -136.351868 3.891586 -6.800604 8.031084 23.847620 8.773561 25.012177 16.246256 3.619274 18.148899 3.430190 -1.618037 52.719543 -23.468632 -53.801464 -31.083693 6.329680 -16.414476 2.373758 -2.462671 35.777401 1.350859 5.476265 -18.538111 -4.636509 -6.243127 -14.643709 -2.353774 3.596109 35.200321 -1.963980 -5.753155 -18.435371 -3.393460 
-0.161964 28.564322 0.368588 0.000000 0.000000 6.139966 3.878495 7.015500 -0.829720 1.948723 6.233219 14.338698 0.000000 0.000000 0.000000 0.000000 0.000000 0.000000 -14.407984 8.701375 -17.534943 9.561892 -5.268210 12.830327 -7.412493 19.106873 -143.875381 8.761720 -9.417871 11.302465 22.754534 6.407805 24.365917 14.190935 2.169863 15.318948 2.666234 -2.797669 50.943390 -28.468796 -54.563374 -35.775688 6.275073 -16.011610 2.297703 -2.501790 34.386082 1.329074 5.557460 -17.818296 -6.350503 -6.116695 -13.597920 -2.155468 3.669994 33.513664 -1.925572 -5.854659 -17.583406 -5.252308 
-0.157689 28.475807 0.368588 0.000000 0.000000 7.517206 3.866968 6.857942 -0.818542 1.948723 6.233219 18.313860 0.000000 0.000000 0.000000 0.000000 0.000000 0.000000 -15.436170 9.769164 -15.732060 3.389297 -0.374562 16.906931 -9.389305 18.191381 -137.365799 13.674857 -11.822209 14.478317 21.672810 4.178051 23.743628 12.058283 0.740841 12.859685 1.997697 -3.817668 51.415253 -27.181473 -54.393055 -34.573425 6.218491 -15.577447 2.216644 -2.538977 32.957035 1.302355 5.631783 -17.084848 -7.977982 -5.994581 -12.552783 -1.961968 3.739947 31.804121 -1.878253 -5.947178 -16.709448 -7.019685 
-0.153060 28.361837 0.368588 0.000000 0.000000 9.008389 3.854530 6.687345 -0.806512 1.948723 6.233219 22.617901 0.000000 0.000000 0.000000 0.000000 0.000000 0.000000 -17.441189 11.741986 -14.104472 -7.907113 7.576653 20.669268 -14.008268 14.840359 -121.134087 18.035328 -13.769912 17.218758 20.730455 2.303406 23.211573 10.103756 -0.500240 11.121296 1.412403 -4.888666 53.351749 -23.751684 -53.852001 -31.350937 6.163459 -15.133265 2.134626 -2.570518 31.589270 1.272094 5.693915 -16.386646 -9.345947 -5.886683 -11.593624 -1.788266 3.798891 30.199955 -1.825241 -6.023931 -15.879900 -8.514941 
-0.149475 28.291588 0.368588 0.000000 0.000000 10.163332 3.844926 6.555211 -0.797246 1.948723 6.233219 25.951445 0.000000 0.000000 0.000000 0.000000 0.000000 0.000000 -19.657778 13.851010 -13.148323 -18.333918 15.235511 23.027714 -17.805798 9.695665 -103.298447 21.162878 -15.064411 19.148914 20.070316 0.992575 22.839977 8.621630 -1.384637 10.454333 0.874944 -5.862037 54.368145 -18.906240 -52.853603 -26.746452 6.113378 -14.700365 2.055499 -2.592608 30.381767 1.240334 5.740148 -15.770861 -10.280487 -5.802112 -10.805883 -1.648114 3.839514 28.829357 -1.771196 -6.080261 -15.163199 -9.558797 
-0.148332 28.334242 0.368588 0.000000 0.000000 10.531850 3.841867 6.513048 -0.794298 1.948723 6.233219 27.015106 0.000000 0.000000 0.000000 0.000000 0.000000 0.000000 -21.180561 15.462255 -13.347982 -20.554781 19.806419 22.029888 -19.424366 5.475402 -90.905479 22.354044 -15.535657 19.877443 19.840296 0.450666 22.700661 7.903308 -1.749225 11.211760 0.185702 -6.489655 52.069653 -13.411139 -51.341427 -21.437407 6.071536 -14.300063 1.982933 -2.601279 29.433491 1.209518 5.767226 -15.284025 -10.607324 -5.749543 -10.275076 -1.554550 3.854104 27.820473 -1.721575 -6.112265 -14.628602 -9.972555 
